<?xml version="1.0" encoding="UTF-8"?>
<svg id="Layer_2" data-name="Layer 2" xmlns="http://www.w3.org/2000/svg" xmlns:xlink="http://www.w3.org/1999/xlink" viewBox="0 0 1872.32 182.26">
  <defs>
    <style>
      .cls-1 {
        fill: url(#New_Gradient_Swatch_8-21);
      }

      .cls-2 {
        fill: url(#New_Gradient_Swatch_8-32);
      }

      .cls-3 {
        fill: url(#New_Gradient_Swatch_8-23);
      }

      .cls-4 {
        fill: url(#New_Gradient_Swatch_8-2);
      }

      .cls-5 {
        fill: url(#linear-gradient-2);
      }

      .cls-6 {
        fill: url(#New_Gradient_Swatch_8-34);
      }

      .cls-7 {
        fill: url(#New_Gradient_Swatch_8-36);
      }

      .cls-8 {
        fill: url(#New_Gradient_Swatch_8-19);
      }

      .cls-9 {
        fill: url(#New_Gradient_Swatch_8-12);
      }

      .cls-10 {
        fill: #fff;
      }

      .cls-11 {
        fill: url(#New_Gradient_Swatch_8-7);
      }

      .cls-12 {
        fill: url(#New_Gradient_Swatch_8-22);
      }

      .cls-13 {
        fill: none;
      }

      .cls-14 {
        fill: url(#linear-gradient-3);
      }

      .cls-15 {
        fill: url(#New_Gradient_Swatch_8-15);
      }

      .cls-16 {
        fill: url(#New_Gradient_Swatch_8-39);
      }

      .cls-17 {
        fill: url(#New_Gradient_Swatch_8-37);
      }

      .cls-18 {
        fill: url(#New_Gradient_Swatch_8-20);
      }

      .cls-19 {
        fill: url(#New_Gradient_Swatch_8-16);
      }

      .cls-20 {
        fill: url(#New_Gradient_Swatch_8-8);
      }

      .cls-21 {
        fill: url(#New_Gradient_Swatch_8-38);
      }

      .cls-22 {
        fill: url(#New_Gradient_Swatch_8-29);
      }

      .cls-22, .cls-23, .cls-24, .cls-25, .cls-26, .cls-27 {
        opacity: .8;
      }

      .cls-28 {
        fill: url(#New_Gradient_Swatch_8-18);
      }

      .cls-29 {
        fill: url(#New_Gradient_Swatch_8-31);
      }

      .cls-30 {
        fill: url(#New_Gradient_Swatch_8-3);
      }

      .cls-23 {
        fill: url(#New_Gradient_Swatch_8-30);
      }

      .cls-31 {
        fill: url(#New_Gradient_Swatch_8-35);
      }

      .cls-24 {
        fill: url(#New_Gradient_Swatch_8-25);
      }

      .cls-32 {
        fill: url(#New_Gradient_Swatch_8-17);
      }

      .cls-25 {
        fill: url(#New_Gradient_Swatch_8-27);
      }

      .cls-33 {
        fill: url(#New_Gradient_Swatch_8-6);
      }

      .cls-34 {
        fill: url(#New_Gradient_Swatch_8-13);
      }

      .cls-35 {
        fill: url(#New_Gradient_Swatch_8-10);
      }

      .cls-36 {
        fill: url(#New_Gradient_Swatch_8-33);
      }

      .cls-37 {
        fill: url(#New_Gradient_Swatch_8-5);
      }

      .cls-26 {
        fill: url(#New_Gradient_Swatch_8-28);
      }

      .cls-38 {
        fill: url(#New_Gradient_Swatch_8-24);
      }

      .cls-39 {
        fill: url(#New_Gradient_Swatch_8-11);
      }

      .cls-40 {
        fill: url(#New_Gradient_Swatch_8);
      }

      .cls-41 {
        fill: url(#linear-gradient);
      }

      .cls-42 {
        fill: url(#New_Gradient_Swatch_8-14);
      }

      .cls-43 {
        fill: url(#New_Gradient_Swatch_8-9);
      }

      .cls-27 {
        fill: url(#New_Gradient_Swatch_8-26);
      }

      .cls-44 {
        fill: url(#New_Gradient_Swatch_8-4);
      }
    </style>
    <linearGradient id="New_Gradient_Swatch_8" data-name="New Gradient Swatch 8" x1="248.18" y1="155.54" x2="251.17" y2="15.19" gradientUnits="userSpaceOnUse">
      <stop offset="0" stop-color="#00a79d"/>
      <stop offset="1" stop-color="#262262"/>
    </linearGradient>
    <linearGradient id="New_Gradient_Swatch_8-2" data-name="New Gradient Swatch 8" x1="595.3" y1="20.97" x2="597.29" y2="154.35" xlink:href="#New_Gradient_Swatch_8"/>
    <linearGradient id="New_Gradient_Swatch_8-3" data-name="New Gradient Swatch 8" x1="747" y1="159.64" x2="818.67" y2="-3.61" xlink:href="#New_Gradient_Swatch_8"/>
    <linearGradient id="linear-gradient" x1="1623.33" y1="202.28" x2="1538.39" y2="11.16" gradientUnits="userSpaceOnUse">
      <stop offset="0" stop-color="#00a79d"/>
      <stop offset="1" stop-color="#262262"/>
    </linearGradient>
    <linearGradient id="New_Gradient_Swatch_8-4" data-name="New Gradient Swatch 8" x1="1853.26" y1="12.26" x2="1753.73" y2="217.97" xlink:href="#New_Gradient_Swatch_8"/>
    <linearGradient id="New_Gradient_Swatch_8-5" data-name="New Gradient Swatch 8" x1="1688.13" y1="50.36" x2="1621.77" y2="187.06" xlink:href="#New_Gradient_Swatch_8"/>
    <linearGradient id="linear-gradient-2" x1="1232.53" y1="17.42" x2="1306.85" y2="142.18" gradientUnits="userSpaceOnUse">
      <stop offset="0" stop-color="#00a79d"/>
      <stop offset=".38" stop-color="#177085"/>
      <stop offset="1" stop-color="#262262"/>
    </linearGradient>
    <linearGradient id="linear-gradient-3" x1="1145.53" y1="165.66" x2="1188.33" y2="-8.53" xlink:href="#linear-gradient-2"/>
    <linearGradient id="New_Gradient_Swatch_8-6" data-name="New Gradient Swatch 8" x1="35.45" y1="89.32" x2="70.29" y2="88.33" xlink:href="#New_Gradient_Swatch_8"/>
    <linearGradient id="New_Gradient_Swatch_8-7" data-name="New Gradient Swatch 8" x1="35.44" y1="88.96" x2="70.28" y2="87.96" xlink:href="#New_Gradient_Swatch_8"/>
    <linearGradient id="New_Gradient_Swatch_8-8" data-name="New Gradient Swatch 8" x1="35.45" y1="89.21" x2="70.28" y2="88.21" xlink:href="#New_Gradient_Swatch_8"/>
    <linearGradient id="New_Gradient_Swatch_8-9" data-name="New Gradient Swatch 8" x1="981.53" y1="106.03" x2="982.53" y2="88.11" xlink:href="#New_Gradient_Swatch_8"/>
    <linearGradient id="New_Gradient_Swatch_8-10" data-name="New Gradient Swatch 8" x1="980.94" y1="105.99" x2="981.94" y2="88.08" xlink:href="#New_Gradient_Swatch_8"/>
    <linearGradient id="New_Gradient_Swatch_8-11" data-name="New Gradient Swatch 8" x1="981.16" y1="106.01" x2="982.16" y2="88.09" xlink:href="#New_Gradient_Swatch_8"/>
    <linearGradient id="New_Gradient_Swatch_8-12" data-name="New Gradient Swatch 8" x1="1408.12" y1="59.92" x2="1432.67" y2="59.92" xlink:href="#New_Gradient_Swatch_8"/>
    <linearGradient id="New_Gradient_Swatch_8-13" data-name="New Gradient Swatch 8" x1="437.3" y1="90.61" x2="404.45" y2="91.6" gradientTransform="translate(851.54 181.91) rotate(-180)" xlink:href="#New_Gradient_Swatch_8"/>
    <linearGradient id="New_Gradient_Swatch_8-14" data-name="New Gradient Swatch 8" x1="437.29" y1="90.26" x2="404.44" y2="91.25" xlink:href="#New_Gradient_Swatch_8"/>
    <linearGradient id="New_Gradient_Swatch_8-15" data-name="New Gradient Swatch 8" x1="63.92" y1="19.81" x2="88.81" y2="247.75" xlink:href="#New_Gradient_Swatch_8"/>
    <linearGradient id="New_Gradient_Swatch_8-16" data-name="New Gradient Swatch 8" x1="11.22" y1="130.55" x2="30.14" y2="-39.66" xlink:href="#New_Gradient_Swatch_8"/>
    <linearGradient id="New_Gradient_Swatch_8-17" data-name="New Gradient Swatch 8" x1="19.65" y1="138.66" x2="33.59" y2="-29.56" xlink:href="#New_Gradient_Swatch_8"/>
    <linearGradient id="New_Gradient_Swatch_8-18" data-name="New Gradient Swatch 8" x1="1019.06" y1="32.17" x2="906.58" y2="183.47" xlink:href="#New_Gradient_Swatch_8"/>
    <linearGradient id="New_Gradient_Swatch_8-19" data-name="New Gradient Swatch 8" x1="1044.57" y1="51.14" x2="932.1" y2="202.44" xlink:href="#New_Gradient_Swatch_8"/>
    <linearGradient id="New_Gradient_Swatch_8-20" data-name="New Gradient Swatch 8" x1="929.04" y1="117.02" x2="1045.5" y2="106.07" xlink:href="#New_Gradient_Swatch_8"/>
    <linearGradient id="New_Gradient_Swatch_8-21" data-name="New Gradient Swatch 8" x1="930.55" y1="133.12" x2="1047.01" y2="122.17" xlink:href="#New_Gradient_Swatch_8"/>
    <linearGradient id="New_Gradient_Swatch_8-22" data-name="New Gradient Swatch 8" x1="904.74" y1="131.71" x2="980.65" y2="107.71" xlink:href="#New_Gradient_Swatch_8"/>
    <linearGradient id="New_Gradient_Swatch_8-23" data-name="New Gradient Swatch 8" x1="909.98" y1="148.28" x2="985.89" y2="124.28" xlink:href="#New_Gradient_Swatch_8"/>
    <linearGradient id="New_Gradient_Swatch_8-24" data-name="New Gradient Swatch 8" x1="1387.57" y1="58.34" x2="1390.22" y2="180.44" xlink:href="#New_Gradient_Swatch_8"/>
    <linearGradient id="New_Gradient_Swatch_8-25" data-name="New Gradient Swatch 8" x1="483.82" y1="168.3" x2="487.71" y2="168.3" xlink:href="#New_Gradient_Swatch_8"/>
    <linearGradient id="New_Gradient_Swatch_8-26" data-name="New Gradient Swatch 8" x1="479.64" y1="170.49" x2="482.91" y2="170.49" xlink:href="#New_Gradient_Swatch_8"/>
    <linearGradient id="New_Gradient_Swatch_8-27" data-name="New Gradient Swatch 8" x1="475.06" y1="172.38" x2="478.94" y2="172.38" xlink:href="#New_Gradient_Swatch_8"/>
    <linearGradient id="New_Gradient_Swatch_8-28" data-name="New Gradient Swatch 8" x1="434.43" y1="92.38" x2="452.82" y2="92.38" xlink:href="#New_Gradient_Swatch_8"/>
    <linearGradient id="New_Gradient_Swatch_8-29" data-name="New Gradient Swatch 8" x1="487.15" y1="75.84" x2="487.77" y2="75.84" xlink:href="#New_Gradient_Swatch_8"/>
    <linearGradient id="New_Gradient_Swatch_8-30" data-name="New Gradient Swatch 8" x1="473.3" y1="173.55" x2="475.03" y2="173.55" xlink:href="#New_Gradient_Swatch_8"/>
    <linearGradient id="New_Gradient_Swatch_8-31" data-name="New Gradient Swatch 8" x1="434.08" y1="17.34" x2="370.38" y2="218.41" xlink:href="#New_Gradient_Swatch_8"/>
    <linearGradient id="New_Gradient_Swatch_8-32" data-name="New Gradient Swatch 8" x1="435.68" y1="75.21" x2="487.15" y2="75.21" xlink:href="#New_Gradient_Swatch_8"/>
    <linearGradient id="New_Gradient_Swatch_8-33" data-name="New Gradient Swatch 8" x1="475.03" y1="173.2" x2="475.06" y2="173.2" xlink:href="#New_Gradient_Swatch_8"/>
    <linearGradient id="New_Gradient_Swatch_8-34" data-name="New Gradient Swatch 8" x1="478.94" y1="171.41" x2="479.64" y2="171.41" xlink:href="#New_Gradient_Swatch_8"/>
    <linearGradient id="New_Gradient_Swatch_8-35" data-name="New Gradient Swatch 8" x1="487.71" y1="121.73" x2="487.77" y2="121.73" xlink:href="#New_Gradient_Swatch_8"/>
    <linearGradient id="New_Gradient_Swatch_8-36" data-name="New Gradient Swatch 8" x1="482.91" y1="169.51" x2="483.82" y2="169.51" xlink:href="#New_Gradient_Swatch_8"/>
    <linearGradient id="New_Gradient_Swatch_8-37" data-name="New Gradient Swatch 8" x1="452.77" y1="142.32" x2="452.82" y2="142.32" xlink:href="#New_Gradient_Swatch_8"/>
    <linearGradient id="New_Gradient_Swatch_8-38" data-name="New Gradient Swatch 8" x1="483.31" y1="154.83" x2="434.54" y2="54.3" xlink:href="#New_Gradient_Swatch_8"/>
    <linearGradient id="New_Gradient_Swatch_8-39" data-name="New Gradient Swatch 8" x1="1498.23" y1="58.23" x2="1342.95" y2="60.88" xlink:href="#New_Gradient_Swatch_8"/>
  </defs>
  <g id="Layer_1-2" data-name="Layer 1">
    <g>
      <path class="cls-40" d="M265.78,3.74l1.25,1.25v172.27l-1.25,1.25h-32.46l-1.25-1.25V4.99l1.25-1.25h32.46Z"/>
      <path class="cls-4" d="M612.58,3.74l1.25,1.25v172.27l-1.25,1.25h-32.46l-1.25-1.25V4.99l1.25-1.25h32.46Z"/>
      <path class="cls-30" d="M839.67,56.17c-16.23-13.73-34.95-19.97-58.67-19.97-29.96,0-53.68,24.96-53.68,54.92s23.72,54.92,53.68,54.92c23.72,0,42.44-6.24,58.67-19.97l1.25,1.25v38.7c-16.23,11.73-36.2,16.23-59.92,16.23-50.93,0-92.37-40.95-92.37-91.13S730.07,0,781,0C804.72,0,824.69,4.49,840.92,16.23v38.7l-1.25,1.25Z"/>
      <path class="cls-41" d="M1621.56,146.05s-.02,0-.03,0c-23.72,0-42.45-16.23-42.45-49.93V4.99l-1.25-1.25h-32.46l-1.25,1.25v96.12c0,51.18,34.95,81.14,77.4,81.14.01,0,.02,0,.03,0v-36.2Z"/>
      <path class="cls-44" d="M1830.37,47.44c-5.49-7.49-12.98-11.23-19.22-11.23-8.74,0-12.48,4.99-12.48,12.48,0,19.98,73.65,19.98,73.65,77.4,0,29.96-24.97,56.17-58.67,56.17-26.22,0-49.93-13.73-58.67-38.7l28.71-19.22h2.5c6.24,16.73,17.48,21.72,27.46,21.72,12.48,0,21.22-7.49,21.22-19.97,0-29.96-73.65-28.71-73.65-77.4C1761.21,19.98,1783.43,0,1811.14,0c21.23,0,34.95,8.74,48.69,27.46l-26.96,19.98h-2.5Z"/>
      <path class="cls-37" d="M1697.67,3.74h-32.46l-1.25,1.25v91.13c0,33.7-18.73,49.93-42.44,49.93,0,0-.02.02-.03.03v36.16s.02.01.03.01c42.44,0,77.39-29.96,77.39-81.14V4.99l-1.25-1.25Z"/>
      <g>
        <polygon class="cls-5" points="1301.03 3.74 1268.58 3.74 1266.08 4.99 1214.9 66.16 1214.9 117.34 1216.15 117.34 1267.33 57.42 1267.33 177.26 1268.58 178.51 1301.03 178.51 1302.28 177.26 1302.28 4.99 1301.03 3.74"/>
        <polygon class="cls-14" points="1163.72 4.99 1161.22 3.74 1128.76 3.74 1127.52 4.99 1127.52 177.26 1128.76 178.51 1161.22 178.51 1162.47 177.26 1162.47 57.42 1213.65 117.34 1214.9 117.34 1214.9 66.16 1163.72 4.99"/>
      </g>
      <g>
        <path class="cls-33" d="M55.43,83.02c-2.32,0-4.31,1.38-5.21,3.35h2.22v4.75h-2.22c.9,1.98,2.89,3.35,5.21,3.35,3.16,0,5.73-2.57,5.73-5.73s-2.57-5.73-5.73-5.73ZM55.45,90.96c-1.22,0-2.21-.99-2.21-2.21s.99-2.21,2.21-2.21,2.21.99,2.21,2.21-.99,2.21-2.21,2.21Z"/>
        <path class="cls-11" d="M50.21,86.38h-15.26v4.75h15.26c-.33-.72-.52-1.53-.52-2.38s.19-1.65.52-2.38Z"/>
        <path class="cls-20" d="M52.43,86.38h-2.22c-.33.72-.52,1.53-.52,2.38s.19,1.65.52,2.38h2.22v-4.75Z"/>
      </g>
      <g>
        <path class="cls-43" d="M979.39,96.2v11.16h4.75v-11.16c-.72.32-1.53.5-2.38.5s-1.65-.18-2.38-.5Z"/>
        <path class="cls-35" d="M987.5,91.17c0-3.05-2.57-5.53-5.73-5.53s-5.73,2.48-5.73,5.53c0,2.24,1.38,4.16,3.35,5.03v-2.14h4.75v2.14c1.98-.87,3.35-2.79,3.35-5.03ZM981.77,93.27c-1.22,0-2.21-.95-2.21-2.13s.99-2.13,2.21-2.13,2.21.95,2.21,2.13-.99,2.13-2.21,2.13Z"/>
        <path class="cls-39" d="M979.39,94.06v2.14c.72.32,1.53.5,2.38.5s1.65-.18,2.38-.5v-2.14h-4.75Z"/>
      </g>
      <path class="cls-9" d="M1425.4,54.19c-2.24,0-4.16,1.38-5.03,3.35h-14.7v4.75h14.7c.87,1.98,2.79,3.35,5.03,3.35,3.05,0,5.53-2.57,5.53-5.73s-2.48-5.73-5.53-5.73ZM1425.43,62.13c-1.18,0-2.13-.99-2.13-2.21s.95-2.21,2.13-2.21,2.13.99,2.13,2.21-.95,2.21-2.13,2.21Z"/>
      <g>
        <rect class="cls-34" x="417.11" y="88.58" width="17.32" height="4.75" transform="translate(851.54 181.91) rotate(180)"/>
        <path class="cls-42" d="M414.12,85.23c-3.16,0-5.73,2.57-5.73,5.73s2.57,5.73,5.73,5.73,5.73-2.57,5.73-5.73-2.57-5.73-5.73-5.73ZM414.09,93.16c-1.22,0-2.21-.99-2.21-2.21s.99-2.21,2.21-2.21,2.21.99,2.21,2.21-.99,2.21-2.21,2.21Z"/>
      </g>
      <g>
        <path class="cls-15" d="M59.92,3.74h-25.07l.05,34.95h25.03c32.46,0,54.93,21.23,54.93,52.43s-22.47,52.43-54.93,52.43h-24.97s-34.95,0-34.95,0v33.7l1.25,1.25h58.67c53.68,0,92.37-39.2,92.37-87.38S113.6,3.74,59.92,3.74Z"/>
        <polygon class="cls-19" points="34.95 91.13 15.1 91.13 15.1 87.81 15.1 86.38 15.1 3.74 1.25 3.74 .83 4.16 0 4.99 0 143.56 34.95 143.56 34.95 91.13"/>
        <polygon class="cls-32" points="34.85 3.74 19.85 3.74 19.85 86.38 34.95 86.38 34.85 3.74"/>
      </g>
      <g>
        <polygon class="cls-13" points="979.39 107.36 984.14 107.36 984.14 107.36 1001.74 107.36 981.77 48.68 961.79 107.36 979.39 107.36 979.39 107.36"/>
        <polygon class="cls-28" points="896.88 177.26 898.13 178.51 936.83 178.51 938.08 177.26 950.56 142.31 910.31 142.31 896.88 177.26"/>
        <polygon class="cls-8" points="1000.49 4.99 999.24 3.74 964.29 3.74 963.04 4.99 923.73 107.36 961.79 107.36 981.77 48.68 1001.74 107.36 1039.81 107.36 1053.23 142.31 1012.97 142.31 1025.46 177.26 1026.71 178.51 1065.41 178.51 1066.66 177.26 1000.49 4.99"/>
        <rect class="cls-10" x="905.12" y="134.76" width="16.18" height="0" transform="translate(460 938.94) rotate(-68.99)"/>
        <path class="cls-10" d="M923.73,107.36c-1.91,4.99-3.83,9.97-5.74,14.96"/>
        <polygon class="cls-18" points="979.39 122.46 979.39 107.36 961.79 107.36 923.73 107.36 917.93 122.46 979.39 122.46"/>
        <polygon class="cls-1" points="1039.81 107.36 1001.74 107.36 984.14 107.36 984.14 122.46 984.14 122.46 984.14 127.21 984.14 127.21 979.39 127.21 916.1 127.21 910.31 142.31 950.56 142.31 1012.97 142.31 1053.23 142.31 1039.81 107.36"/>
        <rect class="cls-12" x="979.39" y="107.36" width="4.75" height="0"/>
        <rect class="cls-10" x="984.14" y="122.46" width="0" height="4.75"/>
        <rect class="cls-3" x="984.14" y="122.46" width="0" height="4.75"/>
      </g>
      <polygon class="cls-38" points="1405.67 116.22 1405.67 116.1 1405.67 81.14 1405.67 81.02 1405.67 81.14 1405.82 3.74 1371.97 3.74 1370.72 4.99 1370.72 177.26 1371.97 178.51 1385.89 178.51 1385.89 62.31 1385.89 61.22 1385.89 57.48 1405.7 57.48 1405.7 62.31 1390.65 62.31 1390.65 178.51 1404.43 178.51 1405.67 177.26 1405.67 116.1 1405.67 116.1 1405.67 116.22"/>
      <g>
        <path class="cls-24" d="M487.71,167.31c-1.29.69-2.59,1.35-3.9,1.99,1.3-.64,2.6-1.3,3.9-1.99Z"/>
        <path class="cls-27" d="M482.91,169.73c-1.09.52-2.17,1.03-3.27,1.52,1.09-.49,2.18-1,3.27-1.52Z"/>
        <path class="cls-25" d="M478.94,171.56c-1.29.57-2.58,1.11-3.88,1.63,1.3-.52,2.59-1.07,3.88-1.63Z"/>
        <polygon class="cls-26" points="435.68 109.85 434.43 108.6 434.43 76.15 435.68 74.9 435.68 74.9 434.43 76.15 434.43 108.61 435.68 109.85 452.82 109.85 452.82 109.85 435.68 109.85"/>
        <polygon class="cls-22" points="487.77 76.15 487.15 75.53 487.77 76.15 487.77 76.15"/>
        <path class="cls-23" d="M473.3,173.86v.04c.58-.22,1.16-.46,1.73-.69-.57.23-1.16.43-1.73.65Z"/>
        <path class="cls-29" d="M452.77,179.75v-37.42c-6.25,2.49-17.45,3.72-26.16,3.72-34.95,0-57.42-24.96-57.42-54.92s22.47-54.92,56.17-54.92c21.22,0,42.44,3.74,61.17,14.98l1.25-1.25V11.23c-18.72-8.74-38.7-11.23-62.42-11.23-53.68,0-94.87,41.2-94.87,91.13s42.45,91.13,96.12,91.13c14.97,0,28.82-2.23,41.94-6.66v-.04c-5.14,1.73-10.39,3.13-15.78,4.19Z"/>
        <polygon class="cls-2" points="487.15 75.53 486.53 74.9 435.68 74.9 435.68 74.9 486.53 74.9 487.15 75.53"/>
        <path class="cls-36" d="M475.06,173.19s-.02,0-.02,0c0,0,.02,0,.02,0Z"/>
        <path class="cls-6" d="M479.64,171.25c-.23.1-.47.2-.7.31.23-.1.47-.2.7-.31Z"/>
        <path class="cls-31" d="M487.71,167.31s.04-.02.06-.03v-91.13h0s0,91.13,0,91.13c-.02.01-.04.02-.06.03Z"/>
        <path class="cls-7" d="M483.82,169.3c-.3.15-.61.29-.91.43.3-.15.61-.29.91-.43Z"/>
        <path class="cls-17" d="M452.82,142.31s-.04.01-.05.02h0s.04-.01.05-.02h0Z"/>
        <path class="cls-21" d="M468.55,175.56v-82.23h-34.12v-4.75h38.87v85.28c.58-.22,1.16-.43,1.73-.65,0,0,.02,0,.02,0,1.3-.52,2.59-1.07,3.88-1.63.23-.1.47-.2.7-.31,1.09-.49,2.18-1,3.27-1.52.3-.15.61-.29.91-.43,1.31-.64,2.6-1.3,3.9-1.99.02-.01.04-.02.06-.03v-91.13l-.62-.62-.62-.63h-50.85l-1.25,1.25v32.45l1.25,1.25h17.14v32.46h0s-.04.01-.05.02v37.42c5.39-1.06,10.64-2.46,15.78-4.19Z"/>
      </g>
      <path class="cls-16" d="M1425.65,3.74h-53.68l-1.25,1.25v33.98l34.95-.21v-.06h17.48c13.03,0,22.03,4.03,25.07,13.37.2.62.38,1.27.53,1.94.4,1.8.61,3.77.61,5.92,0,14.98-9.99,21.22-26.22,21.22h-17.48v34.95h0s19.98,0,19.98,0c24.05,0,41.77-9.51,52.06-23.61.71-.97,1.38-1.97,2.02-2.98.32-.51.63-1.02.93-1.54.31-.53.61-1.07.9-1.62.3-.56.59-1.13.87-1.7.93-1.89,1.75-3.84,2.45-5.84,0-.02.01-.04.02-.05.55-1.56,1.02-3.14,1.42-4.75.4-1.61.73-3.24,1-4.89.13-.83.25-1.67.34-2.52.24-2.14.38-4.3.39-6.48,0-.06,0-.13,0-.19,0-29.96-22.47-56.18-62.42-56.18Z"/>
    </g>
  </g>
</svg>