<?xml version="1.0" encoding="UTF-8"?>
<svg id="Layer_2" data-name="Layer 2" xmlns="http://www.w3.org/2000/svg" xmlns:xlink="http://www.w3.org/1999/xlink" viewBox="0 0 1872.32 182.26">
  <defs>
    <style>
      .cls-1 {
        fill: url(#linear-gradient-13);
      }

      .cls-2 {
        fill: url(#New_Gradient_Swatch_8-2);
      }

      .cls-3 {
        fill: url(#linear-gradient-2);
      }

      .cls-4 {
        fill: url(#linear-gradient-12);
      }

      .cls-5, .cls-6 {
        fill: #fff;
      }

      .cls-7 {
        fill: none;
      }

      .cls-8 {
        fill: url(#linear-gradient-3);
      }

      .cls-9 {
        fill: url(#linear-gradient-5);
      }

      .cls-10 {
        fill: url(#linear-gradient-8);
      }

      .cls-6, .cls-11, .cls-12, .cls-13, .cls-14, .cls-15, .cls-16 {
        opacity: .8;
      }

      .cls-11 {
        fill: url(#linear-gradient-15);
      }

      .cls-17 {
        fill: url(#New_Gradient_Swatch_1-2);
      }

      .cls-18 {
        fill: url(#linear-gradient-17);
      }

      .cls-19 {
        fill: url(#linear-gradient-7);
      }

      .cls-20 {
        fill: url(#linear-gradient-9);
      }

      .cls-21 {
        fill: url(#linear-gradient-6);
      }

      .cls-12 {
        fill: url(#linear-gradient-10);
      }

      .cls-13 {
        fill: url(#New_Gradient_Swatch_1);
      }

      .cls-22 {
        fill: url(#linear-gradient-16);
      }

      .cls-14 {
        fill: url(#linear-gradient-4);
      }

      .cls-23 {
        fill: url(#New_Gradient_Swatch_8);
      }

      .cls-24 {
        fill: url(#linear-gradient);
      }

      .cls-15 {
        fill: url(#linear-gradient-11);
      }

      .cls-16 {
        fill: url(#linear-gradient-14);
      }
    </style>
    <linearGradient id="linear-gradient" x1="249.09" y1="16.13" x2="249.93" y2="152.04" gradientUnits="userSpaceOnUse">
      <stop offset="0" stop-color="#fff"/>
      <stop offset="1" stop-color="#fff" stop-opacity=".7"/>
    </linearGradient>
    <linearGradient id="linear-gradient-2" x1="595.01" y1="140.97" x2="597.62" y2="43.86" gradientUnits="userSpaceOnUse">
      <stop offset="0" stop-color="#fff"/>
      <stop offset="1" stop-color="#fff" stop-opacity=".6"/>
    </linearGradient>
    <linearGradient id="linear-gradient-3" x1="757.08" y1="29.27" x2="789.82" y2="157.26" xlink:href="#linear-gradient-2"/>
    <linearGradient id="linear-gradient-4" x1="1606.93" y1="155.41" x2="1562.28" y2="65.74" xlink:href="#linear-gradient-2"/>
    <linearGradient id="linear-gradient-5" x1="1807.29" y1="76.93" x2="1815.85" y2="152.47" xlink:href="#linear-gradient-2"/>
    <linearGradient id="linear-gradient-6" x1="1647.63" y1="156.49" x2="1691.54" y2="33.33" xlink:href="#linear-gradient-2"/>
    <linearGradient id="New_Gradient_Swatch_1" data-name="New Gradient Swatch 1" x1="1270.68" y1="106.34" x2="1211.89" y2="172.57" gradientUnits="userSpaceOnUse">
      <stop offset="0" stop-color="#fff"/>
      <stop offset="1" stop-color="#fff" stop-opacity=".8"/>
    </linearGradient>
    <linearGradient id="New_Gradient_Swatch_1-2" data-name="New Gradient Swatch 1" x1="1192.83" y1="37.23" x2="1134.04" y2="103.47" xlink:href="#New_Gradient_Swatch_1"/>
    <linearGradient id="linear-gradient-7" x1="117.65" y1="178.68" x2="20.53" y2="42.22" xlink:href="#linear-gradient"/>
    <linearGradient id="linear-gradient-8" x1="9.93" y1="14.13" x2="17.74" y2="121.01" xlink:href="#linear-gradient"/>
    <linearGradient id="linear-gradient-9" x1="25.01" y1="13.02" x2="32.82" y2="119.91" xlink:href="#linear-gradient"/>
    <linearGradient id="linear-gradient-10" x1="901.81" y1="142.78" x2="988.87" y2="210.88" xlink:href="#linear-gradient-2"/>
    <linearGradient id="linear-gradient-11" x1="966.79" y1="59.69" x2="1053.86" y2="127.79" xlink:href="#linear-gradient-2"/>
    <linearGradient id="linear-gradient-12" x1="1025.96" y1="114.55" x2="948.57" y2="114.92" xlink:href="#linear-gradient-2"/>
    <linearGradient id="linear-gradient-13" x1="1026.06" y1="124.77" x2="948.63" y2="125.15" xlink:href="#linear-gradient-2"/>
    <linearGradient id="New_Gradient_Swatch_8" data-name="New Gradient Swatch 8" x1="904.74" y1="131.71" x2="980.65" y2="107.71" gradientUnits="userSpaceOnUse">
      <stop offset="0" stop-color="#00a79d"/>
      <stop offset="1" stop-color="#262262"/>
    </linearGradient>
    <linearGradient id="New_Gradient_Swatch_8-2" data-name="New Gradient Swatch 8" x1="909.98" y1="148.28" x2="985.89" y2="124.28" xlink:href="#New_Gradient_Swatch_8"/>
    <linearGradient id="linear-gradient-14" x1="1399.39" y1="162.11" x2="1383.39" y2="59.04" xlink:href="#linear-gradient-2"/>
    <linearGradient id="linear-gradient-15" x1="480.09" y1="22.81" x2="386.69" y2="131.84" xlink:href="#linear-gradient"/>
    <linearGradient id="linear-gradient-16" x1="451.8" y1="78.1" x2="482.68" y2="161.45" xlink:href="#linear-gradient"/>
    <linearGradient id="linear-gradient-17" x1="1405.25" y1="15.26" x2="1463.86" y2="105.95" xlink:href="#linear-gradient-2"/>
  </defs>
  <g id="Layer_1-2" data-name="Layer 1">
    <g>
      <path class="cls-24" d="M265.78,3.74l1.25,1.25v172.27l-1.25,1.25h-32.46l-1.25-1.25V4.99l1.25-1.25h32.46Z"/>
      <path class="cls-3" d="M612.58,3.74l1.25,1.25v172.27l-1.25,1.25h-32.46l-1.25-1.25V4.99l1.25-1.25h32.46Z"/>
      <path class="cls-8" d="M839.67,56.17c-16.23-13.73-34.95-19.97-58.67-19.97-29.96,0-53.68,24.96-53.68,54.92s23.72,54.92,53.68,54.92c23.72,0,42.44-6.24,58.67-19.97l1.25,1.25v38.7c-16.23,11.73-36.2,16.23-59.92,16.23-50.93,0-92.37-40.95-92.37-91.13S730.07,0,781,0C804.72,0,824.69,4.49,840.92,16.23v38.7l-1.25,1.25Z"/>
      <path class="cls-14" d="M1621.56,146.05s-.02,0-.03,0c-23.72,0-42.45-16.23-42.45-49.93V4.99l-1.25-1.25h-32.46l-1.25,1.25v96.12c0,51.18,34.95,81.14,77.4,81.14.01,0,.02,0,.03,0v-36.2Z"/>
      <path class="cls-9" d="M1830.37,47.44c-5.49-7.49-12.98-11.23-19.22-11.23-8.74,0-12.48,4.99-12.48,12.48,0,19.98,73.65,19.98,73.65,77.4,0,29.96-24.97,56.17-58.67,56.17-26.22,0-49.93-13.73-58.67-38.7l28.71-19.22h2.5c6.24,16.73,17.48,21.72,27.46,21.72,12.48,0,21.22-7.49,21.22-19.97,0-29.96-73.65-28.71-73.65-77.4C1761.21,19.98,1783.43,0,1811.14,0c21.23,0,34.95,8.74,48.69,27.46l-26.96,19.98h-2.5Z"/>
      <path class="cls-21" d="M1697.67,3.74h-32.46l-1.25,1.25v91.13c0,33.7-18.73,49.93-42.44,49.93,0,0-.02.02-.03.03v36.16s.02.01.03.01c42.44,0,77.39-29.96,77.39-81.14V4.99l-1.25-1.25Z"/>
      <g>
        <polygon class="cls-13" points="1301.03 3.74 1268.58 3.74 1266.08 4.99 1214.9 66.16 1214.9 117.34 1216.15 117.34 1267.33 57.42 1267.33 177.26 1268.58 178.51 1301.03 178.51 1302.28 177.26 1302.28 4.99 1301.03 3.74"/>
        <polygon class="cls-17" points="1163.72 4.99 1161.22 3.74 1128.76 3.74 1127.52 4.99 1127.52 177.26 1128.76 178.51 1161.22 178.51 1162.47 177.26 1162.47 57.42 1213.65 117.34 1214.9 117.34 1214.9 66.16 1163.72 4.99"/>
      </g>
      <g>
        <path class="cls-5" d="M55.43,83.02c-2.32,0-4.31,1.38-5.21,3.35h2.22v4.75h-2.22c.9,1.98,2.89,3.35,5.21,3.35,3.16,0,5.73-2.57,5.73-5.73s-2.57-5.73-5.73-5.73ZM55.45,90.96c-1.22,0-2.21-.99-2.21-2.21s.99-2.21,2.21-2.21,2.21.99,2.21,2.21-.99,2.21-2.21,2.21Z"/>
        <path class="cls-5" d="M50.21,86.38h-15.26v4.75h15.26c-.33-.72-.52-1.53-.52-2.38s.19-1.65.52-2.38Z"/>
        <path class="cls-5" d="M52.43,86.38h-2.22c-.33.72-.52,1.53-.52,2.38s.19,1.65.52,2.38h2.22v-4.75Z"/>
      </g>
      <g>
        <path class="cls-5" d="M979.39,96.2v11.16h4.75v-11.16c-.72.32-1.53.5-2.38.5s-1.65-.18-2.38-.5Z"/>
        <path class="cls-5" d="M987.5,91.17c0-3.05-2.57-5.53-5.73-5.53s-5.73,2.48-5.73,5.53c0,2.24,1.38,4.16,3.35,5.03v-2.14h4.75v2.14c1.98-.87,3.35-2.79,3.35-5.03ZM981.77,93.27c-1.22,0-2.21-.95-2.21-2.13s.99-2.13,2.21-2.13,2.21.95,2.21,2.13-.99,2.13-2.21,2.13Z"/>
        <path class="cls-5" d="M979.39,94.06v2.14c.72.32,1.53.5,2.38.5s1.65-.18,2.38-.5v-2.14h-4.75Z"/>
      </g>
      <rect class="cls-5" x="1405.67" y="57.54" width="16.84" height="4.75"/>
      <path class="cls-5" d="M1425.4,54.19c-3.05,0-5.53,2.57-5.53,5.73s2.48,5.73,5.53,5.73,5.53-2.57,5.53-5.73-2.48-5.73-5.53-5.73ZM1425.43,62.13c-1.18,0-2.13-.99-2.13-2.21s.95-2.21,2.13-2.21,2.13.99,2.13,2.21-.95,2.21-2.13,2.21Z"/>
      <g>
        <rect class="cls-5" x="417.11" y="88.58" width="17.32" height="4.75" transform="translate(851.54 181.91) rotate(180)"/>
        <path class="cls-5" d="M414.12,85.23c-3.16,0-5.73,2.57-5.73,5.73s2.57,5.73,5.73,5.73,5.73-2.57,5.73-5.73-2.57-5.73-5.73-5.73ZM414.09,93.16c-1.22,0-2.21-.99-2.21-2.21s.99-2.21,2.21-2.21,2.21.99,2.21,2.21-.99,2.21-2.21,2.21Z"/>
      </g>
      <g>
        <path class="cls-19" d="M59.92,3.74h-25.07l.05,34.95h25.03c32.46,0,54.93,21.23,54.93,52.43s-22.47,52.43-54.93,52.43h-24.97s-34.95,0-34.95,0v33.7l1.25,1.25h58.67c53.68,0,92.37-39.2,92.37-87.38S113.6,3.74,59.92,3.74Z"/>
        <polygon class="cls-10" points="34.95 91.13 15.1 91.13 15.1 87.81 15.1 86.38 15.1 3.74 1.25 3.74 .83 4.16 0 4.99 0 143.56 34.95 143.56 34.95 91.13"/>
        <polygon class="cls-20" points="34.85 3.74 19.85 3.74 19.85 86.38 34.95 86.38 34.85 3.74"/>
      </g>
      <g>
        <polygon class="cls-7" points="979.39 107.36 984.14 107.36 984.14 107.36 1001.74 107.36 981.77 48.68 961.79 107.36 979.39 107.36 979.39 107.36"/>
        <polygon class="cls-12" points="896.88 177.26 898.13 178.51 936.83 178.51 938.08 177.26 950.56 142.31 910.31 142.31 896.88 177.26"/>
        <polygon class="cls-15" points="1000.49 4.99 999.24 3.74 964.29 3.74 963.04 4.99 923.73 107.36 961.79 107.36 981.77 48.68 1001.74 107.36 1039.81 107.36 1053.23 142.31 1012.97 142.31 1025.46 177.26 1026.71 178.51 1065.41 178.51 1066.66 177.26 1000.49 4.99"/>
        <polygon class="cls-4" points="979.39 122.46 979.39 107.36 961.79 107.36 923.73 107.35 917.93 122.46 979.39 122.46"/>
        <polygon class="cls-1" points="1039.86 107.33 1001.79 107.33 984.2 107.33 984.2 122.43 984.2 122.43 984.2 127.19 984.2 127.19 979.45 127.19 916.16 127.19 910.31 142.31 950.61 142.29 1013.03 142.29 1053.29 142.29 1039.86 107.33"/>
        <rect class="cls-23" x="979.39" y="107.36" width="4.75" height="0"/>
        <rect class="cls-5" x="984.14" y="122.46" width="0" height="4.75"/>
        <rect class="cls-2" x="984.14" y="122.46" width="0" height="4.75"/>
      </g>
      <polygon class="cls-16" points="1405.67 116.22 1405.67 116.1 1405.67 81.14 1405.67 81.02 1405.67 81.14 1405.82 3.74 1371.97 3.74 1370.72 4.99 1370.72 177.26 1371.97 178.51 1385.89 178.51 1385.89 62.31 1385.89 61.22 1385.89 57.48 1405.7 57.48 1405.7 62.31 1390.65 62.31 1390.65 178.51 1404.43 178.51 1405.67 177.26 1405.67 116.1 1405.67 116.1 1405.67 116.22"/>
      <g>
        <path class="cls-6" d="M487.71,167.31c-1.29.69-2.59,1.35-3.9,1.99,1.3-.64,2.6-1.3,3.9-1.99Z"/>
        <path class="cls-6" d="M482.91,169.73c-1.09.52-2.17,1.03-3.27,1.52,1.09-.49,2.18-1,3.27-1.52Z"/>
        <path class="cls-6" d="M478.94,171.56c-1.29.57-2.58,1.11-3.88,1.63,1.3-.52,2.59-1.07,3.88-1.63Z"/>
        <polygon class="cls-6" points="435.68 109.85 434.43 108.6 434.43 76.15 435.68 74.9 435.68 74.9 434.43 76.15 434.43 108.61 435.68 109.85 452.82 109.85 452.82 109.85 435.68 109.85"/>
        <polygon class="cls-6" points="487.77 76.15 487.15 75.53 487.77 76.15 487.77 76.15"/>
        <path class="cls-6" d="M473.3,173.86v.04c.58-.22,1.16-.46,1.73-.69-.57.23-1.16.43-1.73.65Z"/>
        <path class="cls-11" d="M452.77,179.75v-37.42c-6.25,2.49-17.45,3.72-26.16,3.72-34.95,0-57.42-24.96-57.42-54.92s22.47-54.92,56.17-54.92c21.22,0,42.44,3.74,61.17,14.98l1.25-1.25V11.23c-18.72-8.74-38.7-11.23-62.42-11.23-53.68,0-94.87,41.2-94.87,91.13s42.45,91.13,96.12,91.13c14.97,0,28.82-2.23,41.94-6.66v-.04c-5.14,1.73-10.39,3.13-15.78,4.19Z"/>
        <polygon class="cls-5" points="487.15 75.53 486.53 74.9 435.68 74.9 435.68 74.9 486.53 74.9 487.15 75.53"/>
        <path class="cls-5" d="M475.06,173.19s-.02,0-.02,0c0,0,.02,0,.02,0Z"/>
        <path class="cls-5" d="M479.64,171.25c-.23.1-.47.2-.7.31.23-.1.47-.2.7-.31Z"/>
        <path class="cls-5" d="M487.71,167.31s.04-.02.06-.03v-91.13h0s0,91.13,0,91.13c-.02.01-.04.02-.06.03Z"/>
        <path class="cls-5" d="M483.82,169.3c-.3.15-.61.29-.91.43.3-.15.61-.29.91-.43Z"/>
        <path class="cls-5" d="M452.82,142.31s-.04.01-.05.02h0s.04-.01.05-.02h0Z"/>
        <path class="cls-22" d="M468.55,175.56v-82.23h-34.12v-4.75h38.87v85.28c.58-.22,1.16-.43,1.73-.65,0,0,.02,0,.02,0,1.3-.52,2.59-1.07,3.88-1.63.23-.1.47-.2.7-.31,1.09-.49,2.18-1,3.27-1.52.3-.15.61-.29.91-.43,1.31-.64,2.6-1.3,3.9-1.99.02-.01.04-.02.06-.03v-91.13l-.62-.62-.62-.63h-50.85l-1.25,1.25v32.45l1.25,1.25h17.14v32.46h0s-.04.01-.05.02v37.42c5.39-1.06,10.64-2.46,15.78-4.19Z"/>
      </g>
      <path class="cls-18" d="M1425.65,3.74h-53.68l-1.25,1.25v33.98l34.95-.21v-.06h17.48c13.03,0,22.03,4.03,25.07,13.37.2.62.38,1.27.53,1.94.4,1.8.61,3.77.61,5.92,0,14.98-9.99,21.22-26.22,21.22h-17.48v34.95h0s19.98,0,19.98,0c24.05,0,41.77-9.51,52.06-23.61.71-.97,1.38-1.97,2.02-2.98.32-.51.63-1.02.93-1.54.31-.53.61-1.07.9-1.62.3-.56.59-1.13.87-1.7.93-1.89,1.75-3.84,2.45-5.84,0-.02.01-.04.02-.05.55-1.56,1.02-3.14,1.42-4.75.4-1.61.73-3.24,1-4.89.13-.83.25-1.67.34-2.52.24-2.14.38-4.3.39-6.48,0-.06,0-.13,0-.19,0-29.96-22.47-56.18-62.42-56.18Z"/>
    </g>
  </g>
</svg>